<?xml version="1.0" encoding="utf-8"?>
<!-- Generator: Adobe Illustrator 27.9.0, SVG Export Plug-In . SVG Version: 6.00 Build 0)  -->
<svg version="1.1" id="Layer_1" xmlns="http://www.w3.org/2000/svg" xmlns:xlink="http://www.w3.org/1999/xlink" x="0px" y="0px"
	 viewBox="0 0 1024 1024" style="enable-background:new 0 0 1024 1024;" xml:space="preserve">
<g>
	<path d="M419.92,878.36c2.85-28.96,9.39-57.03,22.84-83.32c-20.77,20.62-36.6,44.77-51.67,69.58c3.4-11.43,7.49-22.58,12.86-33.25
		c15.87-31.5,37.7-58.35,63.95-81.72c2.12-1.89,3.89-3.22,1.12-6.29c-17.66-19.57-24.06-43.57-27.1-68.97
		c-2.55-21.33-3.46-42.82-6.69-64.08c-0.45-2.97-1.6-4.81-3.79-6.52c-17.88-13.98-38.04-23.73-58.92-32.26
		c-22.83-9.33-46.89-15-69.86-23.88c-21.46-8.3-35.82-22.77-39.2-46.27c-1.76-12.25-0.37-24.44,4.97-35.61
		c2.98-6.23,2.17-10.83-1.73-15.91c-6.59-8.58-13.08-17.25-19.35-26.07c-30.58-43.01-24.56-98.13,15.18-132.89
		c19.98-17.48,44.1-23.28,70.28-20.59c24.73,2.55,45.12,14.07,62.58,31.22c2.04,2,3.51,2.19,6.02,1.21
		c29.63-11.6,60.55-17.55,92.04-21.16c12.94-1.48,25.9-2.17,38.89-1.76c4.11,0.13,6.12-1.3,7.93-4.91
		c10.26-20.53,25.27-36.65,45.7-47.38c18.71-9.83,38.74-12.82,59.57-10.48c4.07,0.46,4.82,0.25,3.77-4.01
		c-5.13-20.86-11.49-41.32-19.27-61.35c-0.71-1.82-1.31-3.69-2.12-5.97c5.94,0,11.42,0.17,16.88-0.07c2.84-0.12,3.23,1.85,3.94,3.61
		c7.5,18.67,13.34,37.86,18.24,57.38c6.12,24.33,10.08,49.09,14.94,73.67c2.29,11.59,5.98,22.81,9.26,34.13
		c0.92,3.17,1.95,6.3,2.37,9.71c1.74-10.83,3.85-21.49,8.28-32.59c0,4.76,0.08,8.58-0.01,12.4c-0.54,22.07,2.66,43.82,5.48,65.6
		c1.69,13.09,2.4,26.23-0.1,39.3c-0.76,3.98-0.42,6.98,3.38,9.34c3.25,2.02,5.38,5.36,8.2,9.18c9.24-26.47,11.2-52.75,7.33-79.63
		c6.15,5.26,10.3,17.05,11.76,33.62c11.29-22.33,17.08-45.37,11.45-70c-5.52-24.14-4.43-47.53,5.54-70.34
		c2.47-5.66,5.68-10.86,9.73-15.65c-2.82,9.5-4.47,19.17-5.97,28.92c-2.66,17.26-1.75,33.98,3.92,50.65
		c7.41,21.78,7.85,43.76-1.17,65.32c-5.61,13.4-14.28,25.16-20.94,38.01c-2.68,5.16-5.26,10.37-7.91,15.55
		c-5.04,9.84-6.62,19.75-4.53,31.05c3.19,17.3-0.95,33.66-10.85,48.43c-6.39,9.53-15.33,15.17-26.42,17.21
		c-3.22,0.59-4.32,1.8-5.07,4.82c-3.44,13.85-11.76,25.26-19.33,36.94c-14.6,22.56-22.49,47.37-25.26,73.84
		c-1.83,17.49-7.35,32.98-20.24,45.41c-10.95,10.57-15.27,23.99-15.75,38.75c-0.66,20.13-7.2,37.57-21.28,52.3
		c-9.68,10.13-18.42,21.1-23.1,34.66c-0.74,2.14-1.43,4.3-2.4,6.36c0.43-14.69,4.02-28.7,13.54-39.86
		c16.02-18.79,23.62-40.51,26.11-64.56c1.23-11.93,5.87-22.45,13.71-31.52c10.68-12.35,16.07-26.38,15.79-42.96
		c-0.22-13.09,0.36-26.28,4.53-39.22c-2.28,0.5-2.4,2.29-2.96,3.59c-6.57,15.15-14.21,29.68-23.78,43.21
		c-11.37,16.08-18.94,33.88-22.4,53.33c-3.81,21.41-13.85,39.56-28,55.88c-17.61,20.3-32.82,42.37-46.25,65.65
		c-0.24,0.41-0.63,0.74-1.38,0.88c8.73-27.57,23.13-52.2,40.02-75.92c-5.48,2.29-23.72,22.71-38.17,42.33
		c-11.36,15.41-21.33,31.69-30.68,48.42c4.36-16.91,10.15-33.27,18.08-48.84c11.07-21.77,25.24-41.1,44.31-56.62
		c14.77-12.02,23.42-27.8,28.18-46c4.37-16.75,11.51-32.15,22.27-45.87c8.72-11.13,17.09-22.55,21.69-36.58
		c-5.39-0.31-9.66-2.7-13.59-6.35c-2.69,4.22-5.15,8.35-7.88,12.29c-2.84,4.1-5.54,8.43-9.03,11.93c-6.61,6.63-9.1,13.57-8.91,23.52
		c0.43,23.03-19.32,51.58-46.16,55.33c-2.72,0.38-3.57,2.04-4.63,3.88c-8.71,15.13-17.31,30.34-26.14,45.4
		c-13.49,22.99-29.69,44.21-43.89,66.74C439.38,832.73,428.7,854.97,419.92,878.36z M352.78,445.57c-1.27,1.05-2.5,2.13-3.8,3.13
		c-11.5,8.81-24.75,13.35-38.8,16.04c-7.33,1.4-14.77,2.6-21.13,6.98c-6.98,4.81-10.48,14.6-8.2,22.95
		c2.02,7.4,8.05,11.56,17.44,12.18c8.86,0.58,17.61-0.26,26.35-1.72c27.75-4.63,54.65-12.71,81.71-20.08
		c49.41-13.47,99.66-21.77,150.72-25.15c25.1-1.66,50.24-2.69,75.4-2.8c4.74-0.02,7.04-1.3,8.12-6.12
		c2.29-10.21,5.21-20.27,7.8-30.41c1.89-7.39,1.82-7.34-5.58-8.92c-7.97-1.71-15.53-4.49-23.06-8.97c9.09-0.1,17.35,0.13,25.69-0.51
		c5.97-0.45,7.44-2.78,7.86-8.18c0.28-3.59-0.95-3.35-3.4-3.19c-5.66,0.37-11.34,0.47-16.94-0.59
		c-35.77-6.77-59.38-31.17-63.48-67.48c-3.22-28.49,5.96-52.69,29.82-69.84c14.99-10.78,32.36-13.22,50.42-12.13
		c1.17,0.07,3.37,1.58,3.38-1.15c0.01-1.79,0.71-4.22-1.96-5.1c-0.94-0.31-1.91-0.6-2.89-0.73c-32.93-4.61-60.49,4.96-81.59,31.19
		c-10.95,13.62-16.71,29.76-21.53,46.28c-1.99,6.85-4.47,13.47-7.98,21.14c0.38-7.92,0.69-14.45,1.04-21.75
		c-9.22,8.01-17.8,15.47-26.38,22.93c5.87-10.06,9.8-21.02,15.76-30.93c2.17-3.61,1.93-4.84-2.79-4.92
		c-36.51-0.61-71.77,6.45-106.44,17.15c-7.46,2.3-7.45,2.61-2.27,8.26c7.01,7.65,14.13,15.18,22.04,23.67
		c-10.79-4.61-20.38-8.71-30.74-13.14c2.46,7.13,4.6,13.33,6.95,20.12c-2.8-1.43-3.65-3.54-4.96-5.2
		c-10.49-13.32-18.79-28.4-31.73-39.75c-25.42-22.3-53.93-29.23-86.1-16.79c-7.15,2.76-13.7,6.72-19.24,12.1
		c34.13-18.43,69.53-6.53,88.02,13.29c20.44,21.9,25.75,57.89,11.98,84.68c-8.26,16.07-20.23,28.39-37.02,35.59
		c-16.66,7.15-33.7,7.51-51.02,2.57C306.03,456.04,329.06,453.17,352.78,445.57z M296.76,524.26c8.5,6.09,18.18,9.21,28.34,9.31
		c45.46,0.45,90.89,2.67,136.37,2.46c36.89-0.17,71.65-8.7,105.35-23.08c18.66-7.96,36.74-17.14,55.28-25.33
		c3.92-1.73,6.61-3.94,8.29-7.85c2.23-5.2,2.39-5.14-3.52-5.1c-20.65,0.14-41.29,0.79-61.9,2c-26.58,1.56-53.04,4.22-79.33,8.46
		c-33.65,5.43-66.5,14.24-99.37,23.06C356.97,516.05,327.89,525.57,296.76,524.26z M709.23,467.09c0.86-11.14-2.08-22.09-7.8-29.89
		c-10.19-13.89-27.99-13.94-37.78-0.09c-10.04,14.21-9.62,36.71,0.94,50.51c9.91,12.95,28.89,12.69,38.41-0.54
		C707.42,480.92,709.18,473.93,709.23,467.09z M454.16,620.14c1.81,20.97,3.19,41.17,6.09,61.2c1.42,9.83,3,19.73,7.57,28.79
		c4.22,8.36,10.18,9.55,17.07,3.2c4.57-4.21,7.69-9.57,11.12-14.69c2.08-3.1,2.34-5.53,0.24-8.96c-9.15-14.92-7.52-29.79,1.24-44.29
		c1.65-2.74,3.78-5.19,6.38-8.72c-12.61,5.51-22.58,12.28-29.67,23.77C472.5,644.16,464.95,631.79,454.16,620.14z M555.21,639.04
		c0.22-12.07-6.69-18.5-18.8-17.48c-16.34,1.38-33.54,21.57-32.21,37.8c0.87,10.56,7.12,16.6,16.53,15.95
		C538.2,674.13,554.88,656.57,555.21,639.04z M594.99,558.07c0,0.83-0.04,1.66,0.01,2.49c0.55,8.82,5.76,16.69,12.46,18.86
		c7.05,2.28,15.37-0.64,21.08-7.93c6.08-7.77,8.39-16.79,7.72-26.61c-0.5-7.33-3.28-13.33-10.41-16.18
		c-7.06-2.82-13.47-0.54-18.95,4.1C599.14,539.35,595.24,547.91,594.99,558.07z M271.53,351.83c12.52-0.12,24.41-11.22,25.39-23.72
		c0.85-10.88-6.86-17.9-17.54-15.54c-11.41,2.52-18.56,9.92-21.82,20.97C254.54,343.81,260.87,351.92,271.53,351.83z M606.6,294.79
		c10.24-0.12,18.82-6.58,21.85-16.47c3.04-9.89-2.82-19.16-12.69-20.05c-11.81-1.07-23.78,9.78-23.94,21.72
		C591.7,289.29,597.3,294.9,606.6,294.79z M681.35,330.21c-3.02,28.02-5.66,55.89-13.15,83.96c5.91-3.57,11.38-4.92,17.09-4.61
		c3.39,0.19,4.18-1.37,4.74-4.19c2.18-11.05,2.14-22.12,0.96-33.27C689.45,357.73,685.76,343.87,681.35,330.21z M547.67,607.31
		c4.81-0.16,9,1.39,13.07,3.3c1.65,0.78,2.85,0.97,4.4-0.44c8.63-7.84,15.5-16.89,19.33-27.98c0.97-2.8,2.3-5.73,1.13-9.45
		C572.98,584.61,560.5,595.98,547.67,607.31z M657.37,506.74c-2.47,7.18-4.86,14.05-7.18,20.95c-0.25,0.74-0.33,1.72-0.06,2.42
		c2.88,7.35,3.92,14.93,3.14,22.89c7.02-10.69,11.2-22.45,14.37-34.63c0.33-1.28-0.4-2.03-1.35-2.9
		C663.35,512.8,660.6,509.93,657.37,506.74z M628.99,514.7c4.88-1.26,8.18,4.45,11,1.99c2.63-2.29,3-7.16,4.36-10.9
		c0.06-0.16,0.15-0.3,0.19-0.46c1.14-5.29,3.31-10.41,2.46-16.18C641.21,497.37,635.42,505.59,628.99,514.7z M494.57,623.97
		c-9.82-2.32-19.22-5.09-27.3-11.13c4.58,7.21,11.34,11.15,19.04,13.74C489.26,627.56,491.88,627.1,494.57,623.97z M262.86,354.73
		c-0.15-2.14-1.25-3.39-3.13-3.31c-2.47,0.1-3.91,1.54-3.8,4.17c0.1,2.23,1.35,3.36,3.52,3.16
		C261.91,358.52,262.48,356.56,262.86,354.73z M598.25,301.89c2.93,0.23,3.16-2.01,3.52-3.85c0.4-2.06-1.06-3.01-2.83-3.23
		c-2.4-0.3-3.16,1.36-3.24,3.34C595.63,299.98,595.72,301.9,598.25,301.89z"/>
	<path d="M729.16,329.19c-5.23-19.94-13.65-38.6-20.89-57.7c-5.11-13.5-6.05-27.71-4.1-41.87c3.69-26.91,1.84-53.5-3.55-79.93
		c-0.78-3.83,0.36-4.24,3.46-3.97c1.99,0.17,4,0.05,6,0.04c8.22-0.04,8.47-0.08,9.58,8.07c2.4,17.65,4.9,35.33,3.24,53.22
		c-0.71,7.61-1.67,15.22-2.97,22.75c-2.57,14.87,0.38,29.07,4.37,43.26C729.44,291.42,732.24,310.06,729.16,329.19z"/>
	<path d="M702.2,544.59c-11.14,23.59-19.72,47.75-26.46,72.61c-4.82,17.79-6.18,35.98-6.84,54.3
		c-1.32,36.57-13.77,69.07-36.32,98.21c-0.96-1.73,0.39-2.62,0.7-3.66c0.37-1.26,1.16-2.39,1.65-3.62
		c10.27-25.79,17.07-52.39,19.18-80.16c1.47-19.38,2.13-38.86,6.78-57.91c6.91-28.27,19.5-53.63,38.02-76.05
		C699.97,547.02,701.1,545.82,702.2,544.59z"/>
	<path d="M700.52,613.21c-2.09-9.94-0.92-19.61,0.93-29.23c2.44-12.7,7.11-24.62,14.04-35.47c11.53-18.05,16.28-37.87,17.58-58.99
		c2.03-32.96,11.75-63.21,33.58-88.76c0.69-0.81,1.25-1.93,2.79-2.01c-9.84,17.1-15.58,35.48-18.99,54.67
		c-2.18,12.32-2.78,24.81-3.05,37.25c-0.55,24.66-9.77,45.69-24.49,64.98c-10.58,13.87-18.4,29.25-21.38,46.69
		C700.92,605.91,700.84,609.58,700.52,613.21z"/>
	<path d="M789.61,261.53c12.45,38.35,5.26,75.24-8.4,112.52C780.4,335.72,791.83,299.1,789.61,261.53z"/>
	<path d="M687.49,242.3c-8.04-28.27-16.09-56.55-22.15-85.35C682.24,182.9,686,212.3,687.49,242.3z"/>
	<path d="M721.64,587.76c-0.98,18.74-3.66,35.74-11.71,52.5C710.69,621.91,713.95,605.03,721.64,587.76z"/>
	<path d="M544.86,398.59c-0.46,4.68-1.87,9.04-5.56,12.33c-4.59,4.09-10.45,3.18-13.54-2.05c-3.59-6.05-2.11-16,3.08-20.73
		c4.43-4.04,10.39-3.28,13.66,1.82C544.15,392.55,544.63,395.5,544.86,398.59z"/>
	<path d="M417.69,411.3c-0.07-7.4,5.62-11.13,12.4-8.14c5.61,2.47,9.98,9.39,9.82,15.52c-0.22,7.89-7.17,11.72-13.98,7.69
		C421.12,423.53,417.74,417.34,417.69,411.3z"/>
	<path d="M584.6,381.96c-6.75-2.69-10.69-8.14-13.43-14.71C575.65,372.15,580.12,377.05,584.6,381.96z"/>
	<path d="M376.37,419.42c1.97-3.9,3.95-7.8,5.92-11.7C382.09,412.47,379.67,416.16,376.37,419.42z"/>
</g>
</svg>
